<svg xmlns="http://www.w3.org/2000/svg" viewBox="-7 0 32 32"><path fill="#f60" d="M13.625 12.875c-1.844 0-3.313-1.469-3.313-3.313s1.469-3.344 3.313-3.344 3.344 1.5 3.344 3.344-1.5 3.313-3.344 3.313zm-6.062-.562c-1.344 0-2.438-1.094-2.438-2.438s1.094-2.438 2.438-2.438c1.375 0 2.469 1.094 2.469 2.438s-1.094 2.438-2.469 2.438zm10.625 5.718c0 .094 0 .219-.031.313h.031v7.875H9.094v-4.125H4.25v-2.063H0v-4.906c0-1.5 1.219-2.719 2.719-2.719 1.063 0 1.938.563 2.406 1.438.625-.656 1.469-1.094 2.438-1.094 1.344 0 2.5.781 3.031 1.938a4.444 4.444 0 013.031-1.188c2.531 0 4.563 2.031 4.563 4.531zm-15.469-6c-1.094 0-2-.875-2-2 0-1.094.906-2 2-2 1.125 0 2 .906 2 2 0 1.125-.875 2-2 2z"/></svg>